<svg xmlns="http://www.w3.org/2000/svg" width="24" height="24" fill="none" class="w-6 h-6"><path stroke="url(#a)" stroke-linecap="round" stroke-linejoin="round" stroke-width="1.388" d="M13.997 15.521c-1.518-.652-2.812-1.526-4.885-3.458-3.946-3.66-5.864-7.86-4.242-9.36 1.008-.947 4.103-.914 8.018 1.943"></path><path stroke="url(#b)" stroke-linecap="round" stroke-linejoin="round" stroke-width="1.388" d="M15.509 7.662c2.978 3.374 4.754 7.077 3.405 8.437-.531.53-1.399.652-2.47.427"></path><path stroke="url(#c)" stroke-linecap="round" stroke-linejoin="round" stroke-width="1.388" d="M10.032 10.244c2.94-4.09 6.452-5.912 8.464-4.897 2.11 1.058 1.388 5.568-1.593 10.059-2.98 4.49-7.136 7.28-9.246 6.22-1.744-.876-1.587-4.301.202-7.926"></path><defs><linearGradient id="a" x1="4.293" x2="14.782" y1="8.834" y2="3.715" gradientUnits="userSpaceOnUse"><stop offset="0.014" stop-color="#E201BE"></stop><stop offset="0.67" stop-color="#5F2EEA"></stop><stop offset="0.997" stop-color="#00BFDB"></stop></linearGradient><linearGradient id="b" x1="15.509" x2="20.279" y1="12.147" y2="10.766" gradientUnits="userSpaceOnUse"><stop offset="0.014" stop-color="#E201BE"></stop><stop offset="0.67" stop-color="#5F2EEA"></stop><stop offset="0.997" stop-color="#00BFDB"></stop></linearGradient><linearGradient id="c" x1="6.429" x2="20.277" y1="13.46" y2="6.092" gradientUnits="userSpaceOnUse"><stop offset="0.014" stop-color="#E201BE"></stop><stop offset="0.67" stop-color="#5F2EEA"></stop><stop offset="0.997" stop-color="#00BFDB"></stop></linearGradient></defs></svg>