<svg xmlns="http://www.w3.org/2000/svg" fill="none" class="hidden h-7 sm:inline" viewBox="0 0 248 89"><path stroke="url(#paint0_linear_2_342)" stroke-linecap="round" stroke-linejoin="round" stroke-width="5.5" d="M115.85 62.741c-4.9-2.1-9.1-5-15.9-11.2-12.8-11.9-19-25.5-13.8-30.4 3.3-3.1 13.3-3 26 6.3"></path><path fill="#FFFFFF" d="M6.45 74.341c-.7 0-1.4-.3-2.1-.8-.8-.7-1.3-1.6-1.3-2.6v-5.9c0-4.9 0-9.9.1-14.9.2-8.7 6.1-16 14.4-17.8 1.4-.3 2.9-.5 4.3-.5 9.3 0 17.4 7.2 18.2 16.4.2 2.7.2 5.4.1 8.1 0 1.2-.1 2.4-.1 3.6V70.641c0 2.1-1.4 3.5-3.3 3.6-2 0-3.5-1.5-3.5-3.5v-10.9-5.5-1.5c0-1.8.1-3.6-.4-5.5-1.4-5.2-6-8.7-11.6-8.7-.5 0-1 0-1.5.1-5.3.6-9.9 5.8-9.9 11.4v20.6c0 1.5-.7 2.5-2 3.1-.4.3-.9.5-1.4.5zM162.45 74.341c-5.1 0-10.1-2.2-13.7-6.1-3.3-3.6-4.9-7.8-4.9-12.9v-19.8c0-2.1 1.4-3.7 3.4-3.7.5 0 .9.1 1.4.3 1.2.5 2 1.7 2 3.1v19.9c0 6 4 11 9.5 12 .8.1 1.5.2 2.3.2 6.6 0 11.8-5.2 11.8-11.9v-13.3-6.6c0-1.9 1-3.3 2.6-3.6.3-.1.5-.1.8-.1 1.9 0 3.4 1.5 3.4 3.6v15.4c0 2.1.1 4.3-.1 6.5-.6 6.3-3.7 11.1-9.3 14.5-2.8 1.7-6 2.5-9.2 2.5zM201.55 73.841c-.2 0-.5 0-.7-.1-7.7-1.8-15.9-9.7-15.8-20.7v-14.3V9.441c0-2.2 1.4-3.8 3.4-3.8s3.4 1.6 3.4 3.8v42.6c0 6.7 2.9 11.4 9 14.4 2.2 1 3.3 2.3 3.6 3.9.2.9 0 1.8-.6 2.4-.7.7-1.4 1.1-2.3 1.1zM64.15 74.341c-5.5 0-10.4-2.1-14.5-6.3-4.2-4.2-6.2-9.3-6.2-15.5v-43.1c0-2.3 1.4-3.7 3.4-3.7s3.3 1.5 3.4 3.6v1.7c0 2.9.1 5.8 0 8.7-.2 3.9 1.5 7 5.2 9.4 2.6 1.7 5.7 2.6 9.1 2.7 8.7.2 15.2 4.4 19.2 12.6 1.7 3.4 2.2 7.2 1.6 11.7-1.1 8.5-7.6 15.7-15.8 17.5-1.9.5-3.7.7-5.4.7zm.6-35.6c-8.2 0-14.4 6.1-14.5 14.2 0 8 6.1 14.4 14.1 14.4s14.3-6.3 14.4-14.2c0-3.8-1.5-7.5-4.2-10.2-2.6-2.7-6.1-4.2-9.7-4.2h-.1z"></path><path fill="#FFFFFF" d="M223.55 74.341c-3.7 0-7.3-1.1-10.8-3.3-8.9-5.6-12.3-16-8.5-25.8 3.1-8.2 10.9-13.4 19.7-13.4h1c9.5.4 17.9 7.7 19.6 17 .4 2.3.4 4.7.4 7v14.6c0 2.5-1.3 3.8-3.8 3.9h-3.1c-.6-2.3-2.1-2.7-2.9-2.7-.6 0-1.2.2-1.9.5-3.3 1.5-6.6 2.2-9.7 2.2zm-.4-35.6c-6.5 0-13.5 5.8-13.5 14.4 0 7.9 6.4 14.3 14.3 14.3h.2c3.7 0 7.3-1.5 9.9-4.3 2.7-2.7 4.1-6.3 4.1-10.1 0-8.4-7.2-14.3-13.5-14.3h-.7c-.2.1-.5 0-.8 0z"></path><path stroke="url(#paint1_linear_2_342)" stroke-linecap="round" stroke-width="5.5" d="M120.75 37.241c9.7 10.9 15.4 23 11 27.4-1.7 1.7-4.5 2.1-8 1.4"></path><path stroke="url(#paint2_linear_2_342)" stroke-linecap="round" stroke-width="5.5" d="M103.45 45.041c9.5-12.9 20.6-18.6 27.1-15.3 6.8 3.4 4.5 18.1-5.2 32.7-9.7 14.6-23.2 23.6-30 20.2-5.7-2.8-5.2-14 .7-25.7"></path><defs><linearGradient id="paint0_linear_2_342" x1="87.907" x2="121.95" y1="48.221" y2="31.608" gradientUnits="userSpaceOnUse"><stop offset="0.014" stop-color="#E201BE"></stop><stop offset="0.67" stop-color="#5F2EEA"></stop><stop offset="0.997" stop-color="#00BFDB"></stop></linearGradient><linearGradient id="paint1_linear_2_342" x1="121.085" x2="136.564" y1="52.772" y2="48.29" gradientUnits="userSpaceOnUse"><stop offset="0.014" stop-color="#E201BE"></stop><stop offset="0.67" stop-color="#5F2EEA"></stop><stop offset="0.997" stop-color="#00BFDB"></stop></linearGradient><linearGradient id="paint2_linear_2_342" x1="95.97" x2="140.913" y1="64.78" y2="40.865" gradientUnits="userSpaceOnUse"><stop offset="0.014" stop-color="#E201BE"></stop><stop offset="0.67" stop-color="#5F2EEA"></stop><stop offset="0.997" stop-color="#00BFDB"></stop></linearGradient></defs></svg>